<?xml version="1.0" encoding="UTF-8" standalone="no"?>
<!DOCTYPE svg PUBLIC "-//W3C//DTD SVG 1.1//EN" "http://www.w3.org/Graphics/SVG/1.1/DTD/svg11.dtd">
<svg width="1000.00" height="1000.00" viewBox="0.00 0.00 1000.00 1000.00" xmlns="http://www.w3.org/2000/svg" xmlns:xlink="http://www.w3.org/1999/xlink">
<g stroke-linecap="round" id="Layer_2">
<path d="M461.13,117.36 C462.54,116.34 467.01,112.61 469.27,111.59 C472.66,110.11 478.01,108.87 481.49,108.62 C488.76,108.15 502.95,108.41 510.86,109.33 C517.79,110.21 533.21,112.66 541.44,114.24 C556.60,117.53 588.36,126.70 603.25,132.11 C617.82,137.76 649.45,152.70 662.45,159.27 C670.89,163.67 681.13,169.73 687.81,174.47 C692.81,178.07 707.55,189.73 711.40,193.10 C716.43,197.50 727.73,209.63 731.57,214.57 C736.28,220.66 744.78,234.54 747.82,241.43 C751.11,248.96 754.76,261.89 755.84,269.80 C756.80,276.98 756.65,292.45 755.75,299.15 C755.04,304.35 750.92,321.79 749.05,328.04 C746.90,335.12 741.82,346.11 736.62,356.30 C732.53,363.97 724.37,378.85 720.45,385.53 C716.62,391.69 708.72,403.52 705.31,407.93 C697.80,417.33 672.53,445.86 660.59,459.08 C655.93,464.31 644.30,477.47 641.48,482.11 C640.28,484.11 638.04,489.57 637.72,492.64 C637.40,496.00 637.96,503.52 638.72,506.11 C640.11,510.62 647.47,520.72 654.47,528.85 C665.16,541.01 686.22,565.16 696.61,577.15 C703.14,585.05 710.90,594.94 716.77,603.17 C724.96,615.05 743.88,644.47 748.94,654.09 C752.37,660.78 758.84,674.40 761.78,681.23 C765.58,690.74 769.67,703.41 771.34,709.91 C773.29,717.52 775.77,732.26 776.12,739.69 C776.46,747.54 775.40,763.64 774.10,769.93 C772.58,777.18 766.74,792.55 762.90,799.70 C759.60,805.80 749.47,818.87 743.71,824.74 C738.42,830.09 726.85,839.16 720.28,843.46 C713.00,848.21 701.70,854.37 693.28,858.18 C686.01,861.31 671.86,867.30 665.32,869.73 C655.54,873.27 645.41,876.38 634.74,878.70 C628.16,880.12 585.97,887.08 574.16,888.51 C563.77,889.60 548.72,890.50 541.03,890.36 C522.95,889.79 499.87,888.15 489.17,887.29 C489.81,886.53 491.56,884.45 491.75,884.22 C491.87,884.07 491.93,883.97 491.92,883.94" fill="none" stroke="rgb(255, 255, 255)" stroke-width="43.48" stroke-opacity="1.00" stroke-linejoin="round"/>
<path d="M283.19,717.60 C280.38,717.96 278.91,718.38 277.24,719.45 C273.05,722.22 269.39,725.90 267.07,729.45 C267.96,734.74 269.15,738.60 271.61,741.28 C273.86,743.64 279.90,747.74 282.84,748.85 C285.40,749.79 292.13,750.96 295.16,750.70 C297.04,750.51 299.66,749.43 301.05,748.28 C302.82,746.73 306.65,739.70 306.75,737.36 C306.78,735.53 305.71,732.48 304.46,731.00 C302.20,728.45 296.57,725.80 292.16,724.37 C290.23,723.77 287.25,723.28 285.56,723.35 C283.50,723.46 275.94,726.95 273.66,729.47 C271.27,732.21 268.74,738.73 268.51,741.35 C268.27,744.90 270.00,752.21 271.88,755.26 C273.81,758.29 278.49,763.27 281.56,765.23 C285.04,767.40 291.59,769.58 294.95,769.68 C298.36,769.73 304.89,768.56 307.69,767.33 C310.48,766.07 316.19,761.75 318.70,759.07 C321.06,756.49 324.59,750.52 325.98,747.07 C327.49,743.21 328.91,736.73 328.95,732.72 C328.94,728.53 327.04,722.77 324.78,720.08 C322.51,717.47 317.14,714.35 313.01,713.22 C309.10,712.19 302.54,711.51 298.34,711.57 C290.64,711.72 276.05,714.63 271.21,716.93 C268.53,718.24 262.85,722.33 260.54,724.67 C258.25,727.04 254.78,732.75 253.43,736.03 C251.97,739.67 250.58,745.68 250.25,749.78 C249.97,753.56 250.51,760.65 251.50,764.01 C252.56,767.45 255.84,773.98 257.73,776.38 C259.64,778.77 265.08,783.26 268.13,785.01 C271.07,786.65 277.56,788.67 281.27,789.28 C285.23,789.89 291.25,790.10 295.16,789.77 C298.17,789.50 305.37,788.25 308.97,787.11 C312.76,785.88 319.58,782.67 322.54,780.51 C325.53,778.28 330.58,773.19 332.45,770.22 C334.35,767.16 336.95,760.62 337.52,756.99 C338.08,753.12 337.90,745.79 337.17,742.41 C336.41,739.05 334.12,732.42 332.81,729.72 C331.47,727.02 327.48,720.90 325.22,718.07 C323.04,715.36 317.94,710.48 315.25,708.35 C312.05,705.85 306.37,702.43 302.47,700.79 C298.41,699.14 291.73,697.64 287.67,697.47 C283.64,697.35 277.32,698.43 273.59,699.86 C269.97,701.29 264.57,704.51 261.55,707.02 C258.60,709.51 254.75,713.96 252.86,717.06 C251.03,720.13 248.84,725.45 247.96,728.98 C247.10,732.58 246.69,738.29 247.03,742.04 C247.42,745.86 248.85,751.70 250.27,755.14 C251.86,758.86 255.50,763.70 258.82,766.40 C261.90,768.85 267.45,771.72 270.87,772.83 C274.32,773.89 281.79,773.95 286.19,773.33 C293.71,772.22 313.79,767.30 317.26,765.14 C317.99,764.68 320.01,762.80 320.78,762.12" fill="none" stroke="rgb(255, 255, 255)" stroke-width="43.48" stroke-opacity="1.00" stroke-linejoin="round"/>
<path d="M283.19,208.32 C280.38,208.68 278.91,209.10 277.24,210.17 C273.05,212.94 269.39,216.62 267.07,220.17 C267.96,225.46 269.15,229.32 271.61,232.00 C273.86,234.36 279.90,238.46 282.84,239.57 C285.40,240.51 292.13,241.68 295.16,241.42 C297.04,241.23 299.66,240.15 301.05,239.00 C302.82,237.45 306.65,230.42 306.75,228.08 C306.78,226.25 305.71,223.20 304.46,221.72 C302.20,219.17 296.57,216.52 292.16,215.09 C290.23,214.49 287.25,214.00 285.56,214.07 C283.50,214.18 275.94,217.67 273.66,220.19 C271.27,222.93 268.74,229.45 268.51,232.07 C268.27,235.62 270.00,242.93 271.88,245.98 C273.81,249.01 278.49,253.99 281.56,255.95 C285.04,258.12 291.59,260.30 294.95,260.40 C298.36,260.45 304.89,259.28 307.69,258.05 C310.48,256.79 316.19,252.47 318.70,249.79 C321.06,247.21 324.59,241.24 325.98,237.79 C327.49,233.93 328.91,227.45 328.95,223.44 C328.94,219.25 327.04,213.49 324.78,210.80 C322.51,208.19 317.14,205.07 313.01,203.94 C309.10,202.91 302.54,202.23 298.34,202.29 C290.64,202.44 276.05,205.35 271.21,207.65 C268.53,208.96 262.85,213.05 260.54,215.39 C258.25,217.76 254.78,223.47 253.43,226.75 C251.97,230.39 250.58,236.40 250.25,240.50 C249.97,244.28 250.51,251.37 251.50,254.73 C252.56,258.17 255.84,264.70 257.73,267.10 C259.64,269.49 265.08,273.98 268.13,275.73 C271.07,277.37 277.56,279.39 281.27,280.00 C285.23,280.61 291.25,280.82 295.16,280.49 C298.17,280.22 305.37,278.97 308.97,277.83 C312.76,276.60 319.58,273.39 322.54,271.23 C325.53,269.01 330.58,263.91 332.45,260.94 C334.35,257.88 336.95,251.34 337.52,247.71 C338.08,243.84 337.90,236.51 337.17,233.13 C336.41,229.77 334.12,223.14 332.81,220.44 C331.47,217.74 327.48,211.62 325.22,208.79 C323.04,206.09 317.94,201.20 315.25,199.07 C312.05,196.57 306.37,193.15 302.47,191.51 C298.41,189.86 291.73,188.36 287.67,188.19 C283.64,188.07 277.32,189.15 273.59,190.58 C269.97,192.01 264.57,195.23 261.55,197.74 C258.60,200.23 254.75,204.68 252.86,207.78 C251.03,210.85 248.84,216.17 247.96,219.70 C247.10,223.30 246.69,229.01 247.03,232.76 C247.42,236.58 248.85,242.42 250.27,245.86 C251.86,249.58 255.50,254.42 258.82,257.12 C261.90,259.57 267.45,262.44 270.87,263.55 C274.32,264.61 281.79,264.67 286.19,264.05 C293.71,262.94 313.79,258.02 317.26,255.86 C317.99,255.40 320.01,253.52 320.78,252.84" fill="none" stroke="rgb(255, 255, 255)" stroke-width="43.48" stroke-opacity="1.00" stroke-linejoin="round"/>
</g>
</svg>
