<?xml version="1.0" encoding="UTF-8" standalone="no"?>
<!DOCTYPE svg PUBLIC "-//W3C//DTD SVG 1.1//EN" "http://www.w3.org/Graphics/SVG/1.1/DTD/svg11.dtd">
<svg width="266.00" height="266.00" viewBox="0.00 0.00 266.00 266.00" xmlns="http://www.w3.org/2000/svg" xmlns:xlink="http://www.w3.org/1999/xlink">
<g stroke-linecap="round" transform="translate(23.00, 6.00)" id="Layer_1_Copy_3">
<path d="M118.75,200.81 Q-9.03,218.86 17.36,98.72" fill="none" stroke="rgb(255, 255, 255)" stroke-width="38.89" stroke-opacity="1.00" stroke-linejoin="round"/>
<path d="M142.01,229.62 C142.01,229.62 136.37,233.97 136.37,233.97 C140.36,229.08 150.98,218.98 156.94,213.39 C166.34,204.94 170.96,200.50 173.61,198.72 C173.88,195.74 131.79,164.60 131.25,164.52 C131.25,164.52 130.56,164.00 130.56,164.00 C130.56,164.00 130.81,164.25 130.81,164.25" fill="none" stroke="rgb(255, 255, 255)" stroke-width="22.22" stroke-opacity="1.00" stroke-linejoin="round"/>
<path d="M97.92,60.53 Q225.69,42.47 199.31,162.61" fill="none" stroke="rgb(255, 255, 255)" stroke-width="38.89" stroke-opacity="1.00" stroke-linejoin="round"/>
<path d="M74.65,31.71 C74.65,31.71 80.30,27.37 80.30,27.37 C76.31,32.25 65.69,42.35 59.72,47.94 C50.32,56.40 45.70,60.83 43.06,62.61 C42.78,65.59 84.87,96.73 85.42,96.81 C85.42,96.81 86.11,97.33 86.11,97.33 C86.11,97.33 85.86,97.08 85.86,97.08" fill="none" stroke="rgb(255, 255, 255)" stroke-width="22.22" stroke-opacity="1.00" stroke-linejoin="round"/>
</g>
</svg>
