<?xml version="1.0" encoding="UTF-8" standalone="no"?>
<!DOCTYPE svg PUBLIC "-//W3C//DTD SVG 1.1//EN" "http://www.w3.org/Graphics/SVG/1.1/DTD/svg11.dtd">
<svg width="500.00" height="500.00" viewBox="0.00 0.00 500.00 500.00" xmlns="http://www.w3.org/2000/svg" xmlns:xlink="http://www.w3.org/1999/xlink">
<g stroke-linecap="round" id="Layer_1_Copy">
<path d="M131.10,177.59 C129.65,171.06 126.31,155.73 124.41,146.93 C123.28,141.29 122.72,136.49 123.23,134.60 C126.54,149.66 129.53,170.56 130.75,181.66 C133.26,217.53 138.03,291.24 140.28,329.08 C141.92,357.08 143.62,386.20 143.68,387.33 C143.72,372.89 144.02,342.87 144.27,327.30 C144.90,311.07 147.04,275.52 147.32,264.21 C147.39,246.74 144.73,216.62 143.32,201.25 C142.15,186.20 139.06,145.51 138.44,142.46 C137.62,138.60 135.77,134.62 135.29,133.55 C136.60,135.30 138.26,138.25 138.96,140.37 C139.42,141.77 139.69,156.97 140.76,167.92 C141.67,175.67 143.60,184.72 143.84,196.47 C143.78,212.97 143.28,252.09 143.91,258.89 C144.51,264.86 146.47,281.25 147.04,287.77 C148.49,309.09 147.89,354.77 147.88,355.87 C147.81,344.20 148.16,332.12 150.28,325.83 C150.44,325.36 151.62,322.23 152.07,320.98" fill="none" stroke="rgb(255, 255, 255)" stroke-width="50.34" stroke-opacity="1.00" stroke-linejoin="round"/>
<path d="M366.00,139.84 C363.74,134.90 361.61,128.83 361.77,119.85 C361.78,119.18 361.79,118.50 361.81,117.82 C361.73,145.35 361.64,209.86 361.64,246.83 C362.16,298.54 364.43,336.99 365.66,371.10 C366.09,379.16 367.81,385.25 368.10,386.28 C368.67,371.25 370.35,335.63 371.41,324.44 C372.04,318.66 373.83,308.97 373.72,299.15 C373.55,286.04 366.32,197.85 363.19,161.84 C362.69,155.76 361.60,141.91 361.99,137.70 C362.47,132.31 358.68,120.12 357.61,116.77 C357.61,116.77 357.61,129.35 357.61,129.35 C357.61,129.35 358.18,139.17 358.18,139.17" fill="none" stroke="rgb(255, 255, 255)" stroke-width="50.34" stroke-opacity="1.00" stroke-linejoin="round"/>
<path d="M151.10,177.59 C149.65,171.06 146.31,155.73 144.41,146.93 C143.28,141.29 142.72,136.49 143.23,134.60 C146.54,149.66 149.53,170.56 150.75,181.66 C153.26,217.53 158.03,291.24 160.28,329.08 C161.92,357.08 163.62,386.20 163.68,387.33 C163.72,372.89 164.02,342.87 164.27,327.30 C164.90,311.07 167.04,275.52 167.32,264.21 C167.39,246.74 164.73,216.62 163.32,201.25 C162.15,186.20 159.06,145.51 158.44,142.46 C157.62,138.60 155.77,134.62 155.29,133.55 C156.60,135.30 158.26,138.25 158.96,140.37 C159.42,141.77 159.69,156.97 160.76,167.92 C161.67,175.67 163.60,184.72 163.84,196.47 C163.78,212.97 163.28,252.09 163.91,258.89 C164.51,264.86 166.47,281.25 167.04,287.77 C168.49,309.09 167.89,354.77 167.88,355.87 C167.81,344.20 168.16,332.12 170.28,325.83 C170.44,325.36 171.62,322.23 172.07,320.98" fill="none" stroke="rgb(255, 255, 255)" stroke-width="50.34" stroke-opacity="1.00" stroke-linejoin="round"/>
<path d="M386.00,139.84 C383.74,134.90 381.61,128.83 381.77,119.85 C381.78,119.18 381.79,118.50 381.81,117.82 C381.73,145.35 381.64,209.86 381.64,246.83 C382.16,298.54 384.43,336.99 385.66,371.10 C386.09,379.16 387.81,385.25 388.10,386.28 C388.67,371.25 390.35,335.63 391.41,324.44 C392.04,318.66 393.83,308.97 393.72,299.15 C393.55,286.04 386.32,197.85 383.19,161.84 C382.69,155.76 381.60,141.91 381.99,137.70 C382.47,132.31 378.68,120.12 377.61,116.77 C377.61,116.77 377.61,129.35 377.61,129.35 C377.61,129.35 378.18,139.17 378.18,139.17" fill="none" stroke="rgb(255, 255, 255)" stroke-width="50.34" stroke-opacity="1.00" stroke-linejoin="round"/>
<path d="M111.10,177.59 C109.65,171.06 106.31,155.73 104.41,146.93 C103.28,141.29 102.72,136.49 103.23,134.60 C106.54,149.66 109.53,170.56 110.75,181.66 C113.26,217.53 118.03,291.24 120.28,329.08 C121.92,357.08 123.62,386.20 123.68,387.33 C123.72,372.89 124.02,342.87 124.27,327.30 C124.90,311.07 127.04,275.52 127.32,264.21 C127.39,246.74 124.73,216.62 123.32,201.25 C122.15,186.20 119.06,145.51 118.44,142.46 C117.62,138.60 115.77,134.62 115.29,133.55 C116.60,135.30 118.26,138.25 118.96,140.37 C119.42,141.77 119.69,156.97 120.76,167.92 C121.67,175.67 123.60,184.72 123.84,196.47 C123.78,212.97 123.28,252.09 123.91,258.89 C124.51,264.86 126.47,281.25 127.04,287.77 C128.49,309.09 127.89,354.77 127.88,355.87 C127.81,344.20 128.16,332.12 130.28,325.83 C130.44,325.36 131.62,322.23 132.07,320.98" fill="none" stroke="rgb(255, 255, 255)" stroke-width="50.34" stroke-opacity="1.00" stroke-linejoin="round"/>
<path d="M346.00,139.84 C343.74,134.90 341.61,128.83 341.77,119.85 C341.78,119.18 341.79,118.50 341.81,117.82 C341.73,145.35 341.64,209.86 341.64,246.83 C342.16,298.54 344.43,336.99 345.66,371.10 C346.09,379.16 347.81,385.25 348.10,386.28 C348.67,371.25 350.35,335.63 351.41,324.44 C352.04,318.66 353.83,308.97 353.72,299.15 C353.55,286.04 346.32,197.85 343.19,161.84 C342.69,155.76 341.60,141.91 341.99,137.70 C342.47,132.31 338.68,120.12 337.61,116.77 C337.61,116.77 337.61,129.35 337.61,129.35 C337.61,129.35 338.18,139.17 338.18,139.17" fill="none" stroke="rgb(255, 255, 255)" stroke-width="50.34" stroke-opacity="1.00" stroke-linejoin="round"/>
</g>
</svg>
