<?xml version="1.0" encoding="UTF-8" standalone="no"?>
<!DOCTYPE svg PUBLIC "-//W3C//DTD SVG 1.1//EN" "http://www.w3.org/Graphics/SVG/1.1/DTD/svg11.dtd">
<svg width="500.00" height="500.00" viewBox="0.00 0.00 500.00 500.00" xmlns="http://www.w3.org/2000/svg" xmlns:xlink="http://www.w3.org/1999/xlink">
<g stroke-linecap="round" id="Layer_3">
<path d="M150.41,173.57 C149.65,172.45 147.11,168.77 146.60,167.88 C144.53,164.25 144.14,159.99 144.26,155.11 C143.97,162.94 144.34,168.66 145.13,176.05 C148.45,205.99 155.05,279.69 158.13,315.58 C162.56,369.55 162.97,377.96 162.72,388.12 C162.75,357.77 162.41,310.52 161.69,293.96 C160.47,275.30 156.40,247.51 154.26,235.09 C151.84,222.48 145.66,193.63 145.13,188.29 C144.85,185.45 145.01,176.40 144.26,174.33 C143.15,171.41 139.13,168.25 138.11,167.41 C142.08,168.39 145.56,169.39 148.69,171.85 C151.99,174.45 156.02,176.31 158.29,177.37 C186.24,189.93 245.36,216.48 276.53,230.47 C293.99,237.83 325.43,250.86 339.42,256.53 C348.03,260.11 358.40,265.60 359.59,265.85 C361.21,266.17 363.98,266.11 365.74,265.85 C364.83,266.54 357.97,271.68 354.20,273.54 C352.43,274.40 337.73,279.55 327.91,284.84 C316.56,291.10 288.33,307.71 273.90,316.37 C251.27,330.51 216.40,354.16 209.38,359.51 C207.77,360.70 206.77,361.83 205.01,364.28 C202.25,366.17 195.91,370.42 192.91,372.21 C189.18,374.41 184.40,377.52 182.31,380.55 C181.98,381.03 181.60,381.76 181.17,382.74 C182.31,379.92 184.65,377.87 188.21,376.59" fill="none" stroke="rgb(255, 255, 255)" stroke-width="98.43" stroke-opacity="1.00" stroke-linejoin="round"/>
</g>
</svg>
